<mxfile host="app.diagrams.net" modified="2024-08-05T13:27:46.268Z" agent="Mozilla/5.0 (Windows NT 6.1; WOW64) AppleWebKit/537.36 (KHTML, like Gecko) Chrome/109.0.0.0 Safari/537.36 OPR/95.0.0.0" etag="TvB5NJQ6jJwdE8bp3URe" version="24.7.1" type="github">
  <diagram name="Страница — 1" id="TMTowhzrf8uIsAVP5wbb">
    <mxGraphModel dx="1394" dy="776" grid="1" gridSize="10" guides="1" tooltips="1" connect="1" arrows="1" fold="1" page="1" pageScale="1" pageWidth="827" pageHeight="1169" math="0" shadow="0">
      <root>
        <mxCell id="0" />
        <mxCell id="1" parent="0" />
        <mxCell id="Ab23GLPg_uMa5unCQNfG-1" value="Pool" style="swimlane;html=1;childLayout=stackLayout;resizeParent=1;resizeParentMax=0;horizontal=0;startSize=20;horizontalStack=0;whiteSpace=wrap;" vertex="1" parent="1">
          <mxGeometry x="100" y="100" width="480" height="360" as="geometry" />
        </mxCell>
        <mxCell id="Ab23GLPg_uMa5unCQNfG-2" value="Lane 1" style="swimlane;html=1;startSize=20;horizontal=0;" vertex="1" parent="Ab23GLPg_uMa5unCQNfG-1">
          <mxGeometry x="20" width="460" height="120" as="geometry" />
        </mxCell>
        <mxCell id="Ab23GLPg_uMa5unCQNfG-3" value="Lane 2" style="swimlane;html=1;startSize=20;horizontal=0;" vertex="1" parent="Ab23GLPg_uMa5unCQNfG-1">
          <mxGeometry x="20" y="120" width="460" height="120" as="geometry" />
        </mxCell>
        <mxCell id="Ab23GLPg_uMa5unCQNfG-4" value="Lane 3" style="swimlane;html=1;startSize=20;horizontal=0;" vertex="1" parent="Ab23GLPg_uMa5unCQNfG-1">
          <mxGeometry x="20" y="240" width="460" height="120" as="geometry" />
        </mxCell>
      </root>
    </mxGraphModel>
  </diagram>
</mxfile>
